<?xml version="1.0" encoding="us-ascii" standalone="no"?><svg xmlns="http://www.w3.org/2000/svg" xmlns:xlink="http://www.w3.org/1999/xlink" contentStyleType="text/css" height="452px" preserveAspectRatio="none" style="width:926px;height:452px;background:#FFFFFF;" version="1.1" viewBox="0 0 926 452" width="926px" zoomAndPan="magnify"><defs/><g><text fill="#000000" font-family="sans-serif" font-size="14" font-weight="bold" lengthAdjust="spacing" textLength="263" x="333.75" y="27.9951">System Sequence Diagram (SSD)</text><rect fill="#FFFFFF" height="233.7344" style="stroke:#181818;stroke-width:1.0;" width="10" x="73.5" y="128.5938"/><rect fill="#FFFFFF" height="212.6016" style="stroke:#181818;stroke-width:1.0;" width="10" x="413.5" y="149.7266"/><rect fill="none" height="90.2031" style="stroke:#000000;stroke-width:1.5;" width="452.5" x="10" y="264.125"/><line style="stroke:#181818;stroke-width:0.5;stroke-dasharray:5.0,5.0;" x1="78" x2="78" y1="118.5938" y2="371.3281"/><line style="stroke:#181818;stroke-width:0.5;stroke-dasharray:5.0,5.0;" x1="418.5" x2="418.5" y1="118.5938" y2="371.3281"/><text fill="#000000" font-family="sans-serif" font-size="14" lengthAdjust="spacing" textLength="111" x="20" y="115.292">Gestor Agr&#237;cola</text><ellipse cx="78.5" cy="50.7969" fill="#E3E3E3" rx="8" ry="8" style="stroke:#181818;stroke-width:0.5;"/><path d="M78.5,58.7969 L78.5,85.7969 M65.5,66.7969 L91.5,66.7969 M78.5,85.7969 L65.5,100.7969 M78.5,85.7969 L91.5,100.7969 " fill="none" style="stroke:#181818;stroke-width:0.5;"/><text fill="#000000" font-family="sans-serif" font-size="14" lengthAdjust="spacing" textLength="111" x="20" y="383.3232">Gestor Agr&#237;cola</text><ellipse cx="78.5" cy="395.125" fill="#E3E3E3" rx="8" ry="8" style="stroke:#181818;stroke-width:0.5;"/><path d="M78.5,403.125 L78.5,430.125 M65.5,411.125 L91.5,411.125 M78.5,430.125 L65.5,445.125 M78.5,430.125 L91.5,445.125 " fill="none" style="stroke:#181818;stroke-width:0.5;"/><rect fill="#E3E3E3" height="30.2969" rx="2.5" ry="2.5" style="stroke:#181818;stroke-width:0.5;" width="68" x="384.5" y="87.2969"/><text fill="#000000" font-family="sans-serif" font-size="14" lengthAdjust="spacing" textLength="54" x="391.5" y="107.292">System</text><rect fill="#E3E3E3" height="30.2969" rx="2.5" ry="2.5" style="stroke:#181818;stroke-width:0.5;" width="68" x="384.5" y="370.3281"/><text fill="#000000" font-family="sans-serif" font-size="14" lengthAdjust="spacing" textLength="54" x="391.5" y="390.3232">System</text><rect fill="#FFFFFF" height="233.7344" style="stroke:#181818;stroke-width:1.0;" width="10" x="73.5" y="128.5938"/><rect fill="#FFFFFF" height="212.6016" style="stroke:#181818;stroke-width:1.0;" width="10" x="413.5" y="149.7266"/><polygon fill="#181818" points="401.5,145.7266,411.5,149.7266,401.5,153.7266,405.5,149.7266" style="stroke:#181818;stroke-width:1.0;"/><line style="stroke:#181818;stroke-width:1.0;" x1="83.5" x2="407.5" y1="149.7266" y2="149.7266"/><text fill="#000000" font-family="sans-serif" font-size="13" font-weight="bold" lengthAdjust="spacing" textLength="9" x="90.5" y="144.6606">1</text><text fill="#000000" font-family="sans-serif" font-size="13" lengthAdjust="spacing" textLength="298" x="103.5" y="144.6606">Solicita a visualiza&#231;&#227;o dos dados dos sensores</text><line style="stroke:#181818;stroke-width:1.0;" x1="423.5" x2="465.5" y1="193.9922" y2="193.9922"/><line style="stroke:#181818;stroke-width:1.0;" x1="465.5" x2="465.5" y1="193.9922" y2="206.9922"/><line style="stroke:#181818;stroke-width:1.0;" x1="424.5" x2="465.5" y1="206.9922" y2="206.9922"/><polygon fill="#181818" points="434.5,202.9922,424.5,206.9922,434.5,210.9922,430.5,206.9922" style="stroke:#181818;stroke-width:1.0;"/><text fill="#000000" font-family="sans-serif" font-size="13" font-weight="bold" lengthAdjust="spacing" textLength="9" x="430.5" y="181.3599">2</text><text fill="#000000" font-family="sans-serif" font-size="13" lengthAdjust="spacing" textLength="472" x="443.5" y="173.7935">Aloca, dinamicamente, mem&#243;ria para uma Struct "sensores" onde vai ser</text><text fill="#000000" font-family="sans-serif" font-size="13" lengthAdjust="spacing" textLength="276" x="443.5" y="188.9263">guardada toda a informa&#231;&#227;o dos sensores.</text><line style="stroke:#181818;stroke-width:1.0;" x1="423.5" x2="465.5" y1="236.125" y2="236.125"/><line style="stroke:#181818;stroke-width:1.0;" x1="465.5" x2="465.5" y1="236.125" y2="249.125"/><line style="stroke:#181818;stroke-width:1.0;" x1="424.5" x2="465.5" y1="249.125" y2="249.125"/><polygon fill="#181818" points="434.5,245.125,424.5,249.125,434.5,253.125,430.5,249.125" style="stroke:#181818;stroke-width:1.0;"/><text fill="#000000" font-family="sans-serif" font-size="13" font-weight="bold" lengthAdjust="spacing" textLength="8" x="430.5" y="231.0591">3</text><text fill="#000000" font-family="sans-serif" font-size="13" lengthAdjust="spacing" textLength="375" x="442.5" y="231.0591">Extrai os dados dos sensores para o ProcessadorDeDados</text><path d="M10,264.125 L76,264.125 L76,271.2578 L66,281.2578 L10,281.2578 L10,264.125 " fill="#EEEEEE" style="stroke:#000000;stroke-width:1.5;"/><rect fill="none" height="90.2031" style="stroke:#000000;stroke-width:1.5;" width="452.5" x="10" y="264.125"/><text fill="#000000" font-family="sans-serif" font-size="13" font-weight="bold" lengthAdjust="spacing" textLength="21" x="25" y="277.1919">alt</text><text fill="#000000" font-family="sans-serif" font-size="11" font-weight="bold" lengthAdjust="spacing" textLength="165" x="91" y="276.3354">[Opera&#231;&#227;o teve sucesso]</text><polygon fill="#181818" points="94.5,298.3906,84.5,302.3906,94.5,306.3906,90.5,302.3906" style="stroke:#181818;stroke-width:1.0;"/><line style="stroke:#181818;stroke-width:1.0;" x1="88.5" x2="412.5" y1="302.3906" y2="302.3906"/><text fill="#000000" font-family="sans-serif" font-size="13" font-weight="bold" lengthAdjust="spacing" textLength="9" x="100.5" y="297.3247">4</text><text fill="#000000" font-family="sans-serif" font-size="13" lengthAdjust="spacing" textLength="204" x="113.5" y="297.3247">Devolve os dados dos sensores</text><line style="stroke:#000000;stroke-width:1.0;stroke-dasharray:2.0,2.0;" x1="10" x2="462.5" y1="311.3906" y2="311.3906"/><text fill="#000000" font-family="sans-serif" font-size="11" font-weight="bold" lengthAdjust="spacing" textLength="38" x="15" y="321.6011">[Erro]</text><polygon fill="#181818" points="94.5,342.3281,84.5,346.3281,94.5,350.3281,90.5,346.3281" style="stroke:#181818;stroke-width:1.0;"/><line style="stroke:#181818;stroke-width:1.0;" x1="88.5" x2="412.5" y1="346.3281" y2="346.3281"/><text fill="#000000" font-family="sans-serif" font-size="13" font-weight="bold" lengthAdjust="spacing" textLength="9" x="100.5" y="341.2622">5</text><text fill="#000000" font-family="sans-serif" font-size="13" lengthAdjust="spacing" textLength="180" x="113.5" y="341.2622">Devolve mensagem de erro</text><!--SRC=[ZLBBIWGn4BpFLpHxKbZz00_2mYmU5URgfStqpWQJzDZf6H-_uy6J9pzXVyoUrxA2We4yI5TNLOhaHvzQ58mGER7R2qS2bOwAVAoqw1wneKfV0u6GKqnDE0NaFTRyx5C3EmoPYaAz6hHwpKeHAdhgA3c2qcCpmC-ggZml2koKKnSVIEpib0LMDvI7VTF8uTDnm1LWXkcoC2drphUO55OJzLYUZYE5xr5fmHTWOoQyk5xCN475mMWK0Q7tkSFWt_3mSNXdg3b3ZUDgCrFAB9H7dYFvh3RSZSjCUogm2Unm3RLF6Bt3I4bf3P7YuKiymX0PT16XifYTlMKHMW6dcg17Rze2zwdfKCmFWd8zsFLfnn9Fp2wTbtzPsRwe6DslxvgCCDm9EyhPwb9IES2cw30etBOaivvIJv2x0SfZ_QVa7FGLbDHpCEZVMP9z4TYA_8l6qilszo9OChJqKAg_0G00]--></g></svg>