<?xml version="1.0" encoding="us-ascii" standalone="no"?><svg xmlns="http://www.w3.org/2000/svg" xmlns:xlink="http://www.w3.org/1999/xlink" contentStyleType="text/css" height="484px" preserveAspectRatio="none" style="width:711px;height:484px;background:#FFFFFF;" version="1.1" viewBox="0 0 711 484" width="711px" zoomAndPan="magnify"><defs/><g><text fill="#000000" font-family="sans-serif" font-size="14" font-weight="bold" lengthAdjust="spacing" textLength="228" x="240.5" y="30.1074">System Sequence Diagram (SSD)</text><rect fill="#FFFFFF" height="348.959" style="stroke:#181818;stroke-width:1.0;" width="10" x="104.5" y="88.2422"/><rect fill="none" height="334.959" style="stroke:#000000;stroke-width:1.5;" width="632.5" x="10" y="95.2422"/><rect fill="none" height="124.5039" style="stroke:#000000;stroke-width:1.5;" width="607.5" x="20" y="254.4063"/><line style="stroke:#181818;stroke-width:0.5;stroke-dasharray:5.0,5.0;" x1="109" x2="109" y1="78.2422" y2="447.2012"/><line style="stroke:#181818;stroke-width:0.5;stroke-dasharray:5.0,5.0;" x1="642" x2="642" y1="78.2422" y2="447.2012"/><rect fill="#E3E3E3" height="32.6211" rx="2.5" ry="2.5" style="stroke:#181818;stroke-width:0.5;" width="159" x="30" y="44.6211"/><text fill="#000000" font-family="sans-serif" font-size="14" lengthAdjust="spacing" textLength="145" x="37" y="66.7285">Processador de Dados</text><rect fill="#E3E3E3" height="32.6211" rx="2.5" ry="2.5" style="stroke:#181818;stroke-width:0.5;" width="159" x="30" y="446.2012"/><text fill="#000000" font-family="sans-serif" font-size="14" lengthAdjust="spacing" textLength="145" x="37" y="468.3086">Processador de Dados</text><rect fill="#E3E3E3" height="32.6211" rx="2.5" ry="2.5" style="stroke:#181818;stroke-width:0.5;" width="125" x="580" y="44.6211"/><text fill="#000000" font-family="sans-serif" font-size="14" lengthAdjust="spacing" textLength="111" x="587" y="66.7285">Coletor de Dados</text><rect fill="#E3E3E3" height="32.6211" rx="2.5" ry="2.5" style="stroke:#181818;stroke-width:0.5;" width="125" x="580" y="446.2012"/><text fill="#000000" font-family="sans-serif" font-size="14" lengthAdjust="spacing" textLength="111" x="587" y="468.3086">Coletor de Dados</text><rect fill="#FFFFFF" height="348.959" style="stroke:#181818;stroke-width:1.0;" width="10" x="104.5" y="88.2422"/><path d="M10,95.2422 L83,95.2422 L83,104.5332 L73,114.5332 L10,114.5332 L10,95.2422 " fill="#EEEEEE" style="stroke:#000000;stroke-width:1.5;"/><rect fill="none" height="334.959" style="stroke:#000000;stroke-width:1.5;" width="632.5" x="10" y="95.2422"/><text fill="#000000" font-family="sans-serif" font-size="13" font-weight="bold" lengthAdjust="spacing" textLength="28" x="25" y="110.2705">loop</text><text fill="#000000" font-family="sans-serif" font-size="11" font-weight="bold" lengthAdjust="spacing" textLength="252" x="98" y="109.1123">[repete o nr de vezes definido pelo utilizador]</text><line style="stroke:#181818;stroke-width:1.0;" x1="114.5" x2="156.5" y1="137.8242" y2="137.8242"/><line style="stroke:#181818;stroke-width:1.0;" x1="156.5" x2="156.5" y1="137.8242" y2="150.8242"/><line style="stroke:#181818;stroke-width:1.0;" x1="115.5" x2="156.5" y1="150.8242" y2="150.8242"/><polygon fill="#181818" points="125.5,146.8242,115.5,150.8242,125.5,154.8242,121.5,150.8242" style="stroke:#181818;stroke-width:1.0;"/><text fill="#000000" font-family="sans-serif" font-size="13" font-weight="bold" lengthAdjust="spacing" textLength="7" x="121.5" y="132.5615">1</text><text fill="#000000" font-family="sans-serif" font-size="13" lengthAdjust="spacing" textLength="144" x="132.5" y="132.5615">Executa fun&#231;&#227;o da US08</text><line style="stroke:#181818;stroke-width:1.0;" x1="114.5" x2="156.5" y1="182.1152" y2="182.1152"/><line style="stroke:#181818;stroke-width:1.0;" x1="156.5" x2="156.5" y1="182.1152" y2="195.1152"/><line style="stroke:#181818;stroke-width:1.0;" x1="115.5" x2="156.5" y1="195.1152" y2="195.1152"/><polygon fill="#181818" points="125.5,191.1152,115.5,195.1152,125.5,199.1152,121.5,195.1152" style="stroke:#181818;stroke-width:1.0;"/><text fill="#000000" font-family="sans-serif" font-size="13" font-weight="bold" lengthAdjust="spacing" textLength="7" x="121.5" y="176.8525">2</text><text fill="#000000" font-family="sans-serif" font-size="13" lengthAdjust="spacing" textLength="286" x="132.5" y="176.8525">Identifica o indice do sensor com o id atual leitura</text><line style="stroke:#181818;stroke-width:1.0;" x1="114.5" x2="156.5" y1="226.4063" y2="226.4063"/><line style="stroke:#181818;stroke-width:1.0;" x1="156.5" x2="156.5" y1="226.4063" y2="239.4063"/><line style="stroke:#181818;stroke-width:1.0;" x1="115.5" x2="156.5" y1="239.4063" y2="239.4063"/><polygon fill="#181818" points="125.5,235.4063,115.5,239.4063,125.5,243.4063,121.5,239.4063" style="stroke:#181818;stroke-width:1.0;"/><text fill="#000000" font-family="sans-serif" font-size="13" font-weight="bold" lengthAdjust="spacing" textLength="7" x="121.5" y="221.1436">3</text><text fill="#000000" font-family="sans-serif" font-size="13" lengthAdjust="spacing" textLength="498" x="132.5" y="221.1436">Verifica se o sensor est&#225; em erro (diferen&#231;a entre timestamp da leitura atual vs &#250;ltima)</text><path d="M20,254.4063 L81,254.4063 L81,263.6973 L71,273.6973 L20,273.6973 L20,254.4063 " fill="#EEEEEE" style="stroke:#000000;stroke-width:1.5;"/><rect fill="none" height="124.5039" style="stroke:#000000;stroke-width:1.5;" width="607.5" x="20" y="254.4063"/><text fill="#000000" font-family="sans-serif" font-size="13" font-weight="bold" lengthAdjust="spacing" textLength="16" x="35" y="269.4346">alt</text><text fill="#000000" font-family="sans-serif" font-size="11" font-weight="bold" lengthAdjust="spacing" textLength="66" x="96" y="268.2764">[Sensor OK]</text><line style="stroke:#181818;stroke-width:1.0;" x1="114.5" x2="156.5" y1="296.9883" y2="296.9883"/><line style="stroke:#181818;stroke-width:1.0;" x1="156.5" x2="156.5" y1="296.9883" y2="309.9883"/><line style="stroke:#181818;stroke-width:1.0;" x1="115.5" x2="156.5" y1="309.9883" y2="309.9883"/><polygon fill="#181818" points="125.5,305.9883,115.5,309.9883,125.5,313.9883,121.5,309.9883" style="stroke:#181818;stroke-width:1.0;"/><text fill="#000000" font-family="sans-serif" font-size="13" font-weight="bold" lengthAdjust="spacing" textLength="7" x="121.5" y="291.7256">4</text><text fill="#000000" font-family="sans-serif" font-size="13" lengthAdjust="spacing" textLength="330" x="132.5" y="291.7256">Aloca os dados ao respetivo sensor no indice encontrado</text><line style="stroke:#000000;stroke-width:1.0;stroke-dasharray:2.0,2.0;" x1="20" x2="627.5" y1="318.9883" y2="318.9883"/><text fill="#000000" font-family="sans-serif" font-size="11" font-weight="bold" lengthAdjust="spacing" textLength="73" x="25" y="330.8584">[Sensor NOK]</text><line style="stroke:#181818;stroke-width:1.0;" x1="114.5" x2="156.5" y1="357.9102" y2="357.9102"/><line style="stroke:#181818;stroke-width:1.0;" x1="156.5" x2="156.5" y1="357.9102" y2="370.9102"/><line style="stroke:#181818;stroke-width:1.0;" x1="115.5" x2="156.5" y1="370.9102" y2="370.9102"/><polygon fill="#181818" points="125.5,366.9102,115.5,370.9102,125.5,374.9102,121.5,370.9102" style="stroke:#181818;stroke-width:1.0;"/><text fill="#000000" font-family="sans-serif" font-size="13" font-weight="bold" lengthAdjust="spacing" textLength="7" x="121.5" y="352.6475">5</text><text fill="#000000" font-family="sans-serif" font-size="13" lengthAdjust="spacing" textLength="483" x="132.5" y="352.6475">Coloca o sensor em erro, timestamp (-1), evitando registos adicionais nesse sensor</text><line style="stroke:#181818;stroke-width:1.0;" x1="114.5" x2="156.5" y1="409.2012" y2="409.2012"/><line style="stroke:#181818;stroke-width:1.0;" x1="156.5" x2="156.5" y1="409.2012" y2="422.2012"/><line style="stroke:#181818;stroke-width:1.0;" x1="115.5" x2="156.5" y1="422.2012" y2="422.2012"/><polygon fill="#181818" points="125.5,418.2012,115.5,422.2012,125.5,426.2012,121.5,422.2012" style="stroke:#181818;stroke-width:1.0;"/><text fill="#000000" font-family="sans-serif" font-size="13" font-weight="bold" lengthAdjust="spacing" textLength="7" x="121.5" y="403.9385">6</text><text fill="#000000" font-family="sans-serif" font-size="13" lengthAdjust="spacing" textLength="144" x="132.5" y="403.9385">Executa fun&#231;&#227;o da US10</text><!--SRC=[ZPA_Rjmm3CPtFGMHwGv8W6GhEXGeuWv5WVG0ezbPYNQ8oA8ZqSwVjmawz1swtekLybqFbznI3uPaV_fz7qcLUquZPXnWa2J-Bij0e7aYLmv_HlJts5Ehpv4WarTCVJmMb3iCyiYfXmvZ8UUKrQJjSr4QeAM7YP8dQ1ZxAb-rRRDs3YULD0q_AJjd76NF8oQ5iqqMJwKOCqEmOxOePu05DirRuRL4qlUYwyRGNdb6fNh2HP7HOezaUu6qo6TweMABZXC7WP6YmAGS-QMwEWVsR1gu-5JV7-7B4_b94RefRNzlVma4X1_jvOSJuTT0IRbZZsR5AR2LRVn2gLXEBqFz701rmWYHMAUC9v1RoZj4gO7tPwdezXMidPIpm2fmHvai3O8vPfiP3oR1OQpPzkIzprnW-oUQ0DSxBungKrcmtx-zT_ySfQQtxjIM0ehrhbZpU3vaIOVQRAvYzgPSC6JJ_qU-EKNRl1RseQPTDUT7uLSNL-jpe9djaeLgtNFH6iFiM19oWMHtW_Q8dMiA_pcngqktY0CTtv2_]--></g></svg>