<?xml version="1.0" encoding="us-ascii" standalone="no"?><svg xmlns="http://www.w3.org/2000/svg" xmlns:xlink="http://www.w3.org/1999/xlink" contentStyleType="text/css" height="467px" preserveAspectRatio="none" style="width:899px;height:467px;background:#FFFFFF;" version="1.1" viewBox="0 0 899 467" width="899px" zoomAndPan="magnify"><defs/><g><text fill="#000000" font-family="sans-serif" font-size="14" font-weight="bold" lengthAdjust="spacing" textLength="263" x="320.25" y="27.9951">System Sequence Diagram (SSD)</text><rect fill="#FFFFFF" height="248.8672" style="stroke:#181818;stroke-width:1.0;" width="10" x="73.5" y="128.5938"/><rect fill="#FFFFFF" height="227.7344" style="stroke:#181818;stroke-width:1.0;" width="10" x="413.5" y="149.7266"/><rect fill="none" height="90.2031" style="stroke:#000000;stroke-width:1.5;" width="452.5" x="10" y="279.2578"/><line style="stroke:#181818;stroke-width:0.5;stroke-dasharray:5.0,5.0;" x1="78" x2="78" y1="118.5938" y2="386.4609"/><line style="stroke:#181818;stroke-width:0.5;stroke-dasharray:5.0,5.0;" x1="418.5" x2="418.5" y1="118.5938" y2="386.4609"/><text fill="#000000" font-family="sans-serif" font-size="14" lengthAdjust="spacing" textLength="111" x="20" y="115.292">Gestor Agr&#237;cola</text><ellipse cx="78.5" cy="50.7969" fill="#E3E3E3" rx="8" ry="8" style="stroke:#181818;stroke-width:0.5;"/><path d="M78.5,58.7969 L78.5,85.7969 M65.5,66.7969 L91.5,66.7969 M78.5,85.7969 L65.5,100.7969 M78.5,85.7969 L91.5,100.7969 " fill="none" style="stroke:#181818;stroke-width:0.5;"/><text fill="#000000" font-family="sans-serif" font-size="14" lengthAdjust="spacing" textLength="111" x="20" y="398.4561">Gestor Agr&#237;cola</text><ellipse cx="78.5" cy="410.2578" fill="#E3E3E3" rx="8" ry="8" style="stroke:#181818;stroke-width:0.5;"/><path d="M78.5,418.2578 L78.5,445.2578 M65.5,426.2578 L91.5,426.2578 M78.5,445.2578 L65.5,460.2578 M78.5,445.2578 L91.5,460.2578 " fill="none" style="stroke:#181818;stroke-width:0.5;"/><rect fill="#E3E3E3" height="30.2969" rx="2.5" ry="2.5" style="stroke:#181818;stroke-width:0.5;" width="68" x="384.5" y="87.2969"/><text fill="#000000" font-family="sans-serif" font-size="14" lengthAdjust="spacing" textLength="54" x="391.5" y="107.292">System</text><rect fill="#E3E3E3" height="30.2969" rx="2.5" ry="2.5" style="stroke:#181818;stroke-width:0.5;" width="68" x="384.5" y="385.4609"/><text fill="#000000" font-family="sans-serif" font-size="14" lengthAdjust="spacing" textLength="54" x="391.5" y="405.4561">System</text><rect fill="#FFFFFF" height="248.8672" style="stroke:#181818;stroke-width:1.0;" width="10" x="73.5" y="128.5938"/><rect fill="#FFFFFF" height="227.7344" style="stroke:#181818;stroke-width:1.0;" width="10" x="413.5" y="149.7266"/><polygon fill="#181818" points="401.5,145.7266,411.5,149.7266,401.5,153.7266,405.5,149.7266" style="stroke:#181818;stroke-width:1.0;"/><line style="stroke:#181818;stroke-width:1.0;" x1="83.5" x2="407.5" y1="149.7266" y2="149.7266"/><text fill="#000000" font-family="sans-serif" font-size="13" font-weight="bold" lengthAdjust="spacing" textLength="9" x="90.5" y="144.6606">1</text><text fill="#000000" font-family="sans-serif" font-size="13" lengthAdjust="spacing" textLength="298" x="103.5" y="144.6606">Solicita a visualiza&#231;&#227;o dos dados dos sensores</text><line style="stroke:#181818;stroke-width:1.0;" x1="423.5" x2="465.5" y1="209.125" y2="209.125"/><line style="stroke:#181818;stroke-width:1.0;" x1="465.5" x2="465.5" y1="209.125" y2="222.125"/><line style="stroke:#181818;stroke-width:1.0;" x1="424.5" x2="465.5" y1="222.125" y2="222.125"/><polygon fill="#181818" points="434.5,218.125,424.5,222.125,434.5,226.125,430.5,222.125" style="stroke:#181818;stroke-width:1.0;"/><text fill="#000000" font-family="sans-serif" font-size="13" font-weight="bold" lengthAdjust="spacing" textLength="9" x="430.5" y="188.9263">2</text><text fill="#000000" font-family="sans-serif" font-size="13" lengthAdjust="spacing" textLength="449" x="443.5" y="173.7935">Aloca na SaidaDeDados, dinamicamente, mem&#243;ria para as estruturas</text><text fill="#000000" font-family="sans-serif" font-size="13" lengthAdjust="spacing" textLength="159" x="447.5" y="188.9263">necess&#225;rias onde vai ser</text><text fill="#000000" font-family="sans-serif" font-size="13" lengthAdjust="spacing" textLength="252" x="443.5" y="204.0591">guardada a informa&#231;&#227;o do ficheiro final</text><line style="stroke:#181818;stroke-width:1.0;" x1="423.5" x2="465.5" y1="251.2578" y2="251.2578"/><line style="stroke:#181818;stroke-width:1.0;" x1="465.5" x2="465.5" y1="251.2578" y2="264.2578"/><line style="stroke:#181818;stroke-width:1.0;" x1="424.5" x2="465.5" y1="264.2578" y2="264.2578"/><polygon fill="#181818" points="434.5,260.2578,424.5,264.2578,434.5,268.2578,430.5,264.2578" style="stroke:#181818;stroke-width:1.0;"/><text fill="#000000" font-family="sans-serif" font-size="13" font-weight="bold" lengthAdjust="spacing" textLength="8" x="430.5" y="246.1919">3</text><text fill="#000000" font-family="sans-serif" font-size="13" lengthAdjust="spacing" textLength="331" x="442.5" y="246.1919">Extrai os dados dos sensores para o SaidaDeDados</text><path d="M10,279.2578 L76,279.2578 L76,286.3906 L66,296.3906 L10,296.3906 L10,279.2578 " fill="#EEEEEE" style="stroke:#000000;stroke-width:1.5;"/><rect fill="none" height="90.2031" style="stroke:#000000;stroke-width:1.5;" width="452.5" x="10" y="279.2578"/><text fill="#000000" font-family="sans-serif" font-size="13" font-weight="bold" lengthAdjust="spacing" textLength="21" x="25" y="292.3247">alt</text><text fill="#000000" font-family="sans-serif" font-size="11" font-weight="bold" lengthAdjust="spacing" textLength="165" x="91" y="291.4683">[Opera&#231;&#227;o teve sucesso]</text><polygon fill="#181818" points="94.5,313.5234,84.5,317.5234,94.5,321.5234,90.5,317.5234" style="stroke:#181818;stroke-width:1.0;"/><line style="stroke:#181818;stroke-width:1.0;" x1="88.5" x2="412.5" y1="317.5234" y2="317.5234"/><text fill="#000000" font-family="sans-serif" font-size="13" font-weight="bold" lengthAdjust="spacing" textLength="9" x="100.5" y="312.4575">4</text><text fill="#000000" font-family="sans-serif" font-size="13" lengthAdjust="spacing" textLength="204" x="113.5" y="312.4575">Devolve os dados dos sensores</text><line style="stroke:#000000;stroke-width:1.0;stroke-dasharray:2.0,2.0;" x1="10" x2="462.5" y1="326.5234" y2="326.5234"/><text fill="#000000" font-family="sans-serif" font-size="11" font-weight="bold" lengthAdjust="spacing" textLength="38" x="15" y="336.7339">[Erro]</text><polygon fill="#181818" points="94.5,357.4609,84.5,361.4609,94.5,365.4609,90.5,361.4609" style="stroke:#181818;stroke-width:1.0;"/><line style="stroke:#181818;stroke-width:1.0;" x1="88.5" x2="412.5" y1="361.4609" y2="361.4609"/><text fill="#000000" font-family="sans-serif" font-size="13" font-weight="bold" lengthAdjust="spacing" textLength="9" x="100.5" y="356.395">5</text><text fill="#000000" font-family="sans-serif" font-size="13" lengthAdjust="spacing" textLength="180" x="113.5" y="356.395">Devolve mensagem de erro</text><!--SRC=[ZPAnRjmm38PtFmLnKmkaBv2XG0077JjupSB8F1yHYRgGbDFqROeEcJBr4VnYbUoxGm8qG0LO9iHV7tyIiWUM8oecI5boE6XE1Aw5EhjaZXWUSAB1doE1Kd2KARuLs077_CGomHwZKTSvUvKEp-QKOA37GX88UiQfoJyDG_-vwx1ubfBkIMiSF2lilf6r_ysaosl84NU01jjXLqiv1pwYEEmsz9hUmXN1CpgTzHtKTG9- -NesSmr3ZXNZ20WpMy78Ft5vMNvd6BF1YEjUFoEnh6Ghvm8_Lsk79-HR-4tC0K4G1kGHU-eRxWf65amSC94uNK6YjFnHHcZZQprKbrgyADgTW50Wi-LN5HXa6Gbcv6f7uKwcWbejDlCi-wpfOXts70x4sWB1-971sn-kbVRFJZSx-PtthLEC3j-FfATgJZE1bMOph_dtnKv3luQUvXohzEEvKdqkSAlwNvWwFQllC44T2Ptla8n_0G00]--></g></svg>