<?xml version="1.0" encoding="us-ascii" standalone="no"?><svg xmlns="http://www.w3.org/2000/svg" xmlns:xlink="http://www.w3.org/1999/xlink" contentStyleType="text/css" height="394px" preserveAspectRatio="none" style="width:792px;height:394px;background:#FFFFFF;" version="1.1" viewBox="0 0 792 394" width="792px" zoomAndPan="magnify"><defs/><g><text fill="#000000" font-family="sans-serif" font-size="14" font-weight="bold" lengthAdjust="spacing" textLength="263" x="266.75" y="27.9951">System Sequence Diagram (SSD)</text><rect fill="#FFFFFF" height="176.4688" style="stroke:#181818;stroke-width:1.0;" width="10" x="73.5" y="128.5938"/><rect fill="#FFFFFF" height="155.3359" style="stroke:#181818;stroke-width:1.0;" width="10" x="413.5" y="149.7266"/><rect fill="none" height="90.2031" style="stroke:#000000;stroke-width:1.5;" width="452.5" x="10" y="206.8594"/><line style="stroke:#181818;stroke-width:0.5;stroke-dasharray:5.0,5.0;" x1="78" x2="78" y1="118.5938" y2="314.0625"/><line style="stroke:#181818;stroke-width:0.5;stroke-dasharray:5.0,5.0;" x1="418.5" x2="418.5" y1="118.5938" y2="314.0625"/><text fill="#000000" font-family="sans-serif" font-size="14" lengthAdjust="spacing" textLength="111" x="20" y="115.292">Gestor Agr&#237;cola</text><ellipse cx="78.5" cy="50.7969" fill="#E3E3E3" rx="8" ry="8" style="stroke:#181818;stroke-width:0.5;"/><path d="M78.5,58.7969 L78.5,85.7969 M65.5,66.7969 L91.5,66.7969 M78.5,85.7969 L65.5,100.7969 M78.5,85.7969 L91.5,100.7969 " fill="none" style="stroke:#181818;stroke-width:0.5;"/><text fill="#000000" font-family="sans-serif" font-size="14" lengthAdjust="spacing" textLength="111" x="20" y="326.0576">Gestor Agr&#237;cola</text><ellipse cx="78.5" cy="337.8594" fill="#E3E3E3" rx="8" ry="8" style="stroke:#181818;stroke-width:0.5;"/><path d="M78.5,345.8594 L78.5,372.8594 M65.5,353.8594 L91.5,353.8594 M78.5,372.8594 L65.5,387.8594 M78.5,372.8594 L91.5,387.8594 " fill="none" style="stroke:#181818;stroke-width:0.5;"/><rect fill="#E3E3E3" height="30.2969" rx="2.5" ry="2.5" style="stroke:#181818;stroke-width:0.5;" width="68" x="384.5" y="87.2969"/><text fill="#000000" font-family="sans-serif" font-size="14" lengthAdjust="spacing" textLength="54" x="391.5" y="107.292">System</text><rect fill="#E3E3E3" height="30.2969" rx="2.5" ry="2.5" style="stroke:#181818;stroke-width:0.5;" width="68" x="384.5" y="313.0625"/><text fill="#000000" font-family="sans-serif" font-size="14" lengthAdjust="spacing" textLength="54" x="391.5" y="333.0576">System</text><rect fill="#FFFFFF" height="176.4688" style="stroke:#181818;stroke-width:1.0;" width="10" x="73.5" y="128.5938"/><rect fill="#FFFFFF" height="155.3359" style="stroke:#181818;stroke-width:1.0;" width="10" x="413.5" y="149.7266"/><polygon fill="#181818" points="401.5,145.7266,411.5,149.7266,401.5,153.7266,405.5,149.7266" style="stroke:#181818;stroke-width:1.0;"/><line style="stroke:#181818;stroke-width:1.0;" x1="83.5" x2="407.5" y1="149.7266" y2="149.7266"/><text fill="#000000" font-family="sans-serif" font-size="13" font-weight="bold" lengthAdjust="spacing" textLength="9" x="90.5" y="144.6606">1</text><text fill="#000000" font-family="sans-serif" font-size="13" lengthAdjust="spacing" textLength="298" x="103.5" y="144.6606">Solicita a visualiza&#231;&#227;o dos dados dos sensores</text><line style="stroke:#181818;stroke-width:1.0;" x1="423.5" x2="465.5" y1="178.8594" y2="178.8594"/><line style="stroke:#181818;stroke-width:1.0;" x1="465.5" x2="465.5" y1="178.8594" y2="191.8594"/><line style="stroke:#181818;stroke-width:1.0;" x1="424.5" x2="465.5" y1="191.8594" y2="191.8594"/><polygon fill="#181818" points="434.5,187.8594,424.5,191.8594,434.5,195.8594,430.5,191.8594" style="stroke:#181818;stroke-width:1.0;"/><text fill="#000000" font-family="sans-serif" font-size="13" font-weight="bold" lengthAdjust="spacing" textLength="9" x="430.5" y="173.7935">2</text><text fill="#000000" font-family="sans-serif" font-size="13" lengthAdjust="spacing" textLength="342" x="443.5" y="173.7935">Extrai os dados dos sensores para o ColetorDeDados</text><path d="M10,206.8594 L76,206.8594 L76,213.9922 L66,223.9922 L10,223.9922 L10,206.8594 " fill="#EEEEEE" style="stroke:#000000;stroke-width:1.5;"/><rect fill="none" height="90.2031" style="stroke:#000000;stroke-width:1.5;" width="452.5" x="10" y="206.8594"/><text fill="#000000" font-family="sans-serif" font-size="13" font-weight="bold" lengthAdjust="spacing" textLength="21" x="25" y="219.9263">alt</text><text fill="#000000" font-family="sans-serif" font-size="11" font-weight="bold" lengthAdjust="spacing" textLength="165" x="91" y="219.0698">[Opera&#231;&#227;o teve sucesso]</text><polygon fill="#181818" points="94.5,241.125,84.5,245.125,94.5,249.125,90.5,245.125" style="stroke:#181818;stroke-width:1.0;"/><line style="stroke:#181818;stroke-width:1.0;" x1="88.5" x2="412.5" y1="245.125" y2="245.125"/><text fill="#000000" font-family="sans-serif" font-size="13" font-weight="bold" lengthAdjust="spacing" textLength="8" x="100.5" y="240.0591">3</text><text fill="#000000" font-family="sans-serif" font-size="13" lengthAdjust="spacing" textLength="204" x="112.5" y="240.0591">Devolve os dados dos sensores</text><line style="stroke:#000000;stroke-width:1.0;stroke-dasharray:2.0,2.0;" x1="10" x2="462.5" y1="254.125" y2="254.125"/><text fill="#000000" font-family="sans-serif" font-size="11" font-weight="bold" lengthAdjust="spacing" textLength="38" x="15" y="264.3354">[Erro]</text><polygon fill="#181818" points="94.5,285.0625,84.5,289.0625,94.5,293.0625,90.5,289.0625" style="stroke:#181818;stroke-width:1.0;"/><line style="stroke:#181818;stroke-width:1.0;" x1="88.5" x2="412.5" y1="289.0625" y2="289.0625"/><text fill="#000000" font-family="sans-serif" font-size="13" font-weight="bold" lengthAdjust="spacing" textLength="9" x="100.5" y="283.9966">4</text><text fill="#000000" font-family="sans-serif" font-size="13" lengthAdjust="spacing" textLength="180" x="113.5" y="283.9966">Devolve mensagem de erro</text><!--SRC=[ZP5DJiGm38NtEONL5Ioum2oG41snPD4JcDHqeadY4Zk5uJeiM76ANepqRpH8814fJXI_V7w9vUXYZma318vi3ua3WQPCHiwP7kqHEshqv0aIMSNO-Kk17B3bLnSxU4OlP8mwBTBc94e16dh952r1xR2Rv5TDKryRWravvl14gUojSeBgWMHQxxeqVbdsM04AB8Ucb59dNOzHeLhGSthPpWWteDAcDr362hovtSpie65VC8g0C3Z9wDqxZf_Z1qFB0YtEiKoXA9n8PiuPlbQRpkQmOYyBxDyqeODVOJ1z633SiwTYhAPwaYnUqIiyzfHMDqe3WMHB8ZpdVvPRNxQ3cWRsHVgtUIezWNrA_yA4ShCqEq1BGDiTYkqt]--></g></svg>