<?xml version="1.0" encoding="us-ascii" standalone="no"?><svg xmlns="http://www.w3.org/2000/svg" xmlns:xlink="http://www.w3.org/1999/xlink" contentStyleType="text/css" height="362px" preserveAspectRatio="none" style="width:569px;height:362px;background:#FFFFFF;" version="1.1" viewBox="0 0 569 362" width="569px" zoomAndPan="magnify"><defs/><g><text fill="#000000" font-family="sans-serif" font-size="14" font-weight="bold" lengthAdjust="spacing" textLength="228" x="169.5" y="30.1074">System Sequence Diagram (SSD)</text><rect fill="#FFFFFF" height="211.7461" style="stroke:#181818;stroke-width:1.0;" width="10" x="57.5" y="88.2422"/><rect fill="#FFFFFF" height="31.291" style="stroke:#181818;stroke-width:1.0;" width="10" x="478.5" y="111.5332"/><line style="stroke:#181818;stroke-width:0.5;stroke-dasharray:5.0,5.0;" x1="62" x2="62" y1="78.2422" y2="324.9883"/><line style="stroke:#181818;stroke-width:0.5;stroke-dasharray:5.0,5.0;" x1="483" x2="483" y1="78.2422" y2="324.9883"/><rect fill="#E3E3E3" height="32.6211" rx="2.5" ry="2.5" style="stroke:#181818;stroke-width:0.5;" width="115" x="5" y="44.6211"/><text fill="#000000" font-family="sans-serif" font-size="14" lengthAdjust="spacing" textLength="101" x="12" y="66.7285">Saida de Dados</text><rect fill="#E3E3E3" height="32.6211" rx="2.5" ry="2.5" style="stroke:#181818;stroke-width:0.5;" width="115" x="5" y="323.9883"/><text fill="#000000" font-family="sans-serif" font-size="14" lengthAdjust="spacing" textLength="101" x="12" y="346.0957">Saida de Dados</text><rect fill="#E3E3E3" height="32.6211" rx="2.5" ry="2.5" style="stroke:#181818;stroke-width:0.5;" width="159" x="404" y="44.6211"/><text fill="#000000" font-family="sans-serif" font-size="14" lengthAdjust="spacing" textLength="145" x="411" y="66.7285">Processador de Dados</text><rect fill="#E3E3E3" height="32.6211" rx="2.5" ry="2.5" style="stroke:#181818;stroke-width:0.5;" width="159" x="404" y="323.9883"/><text fill="#000000" font-family="sans-serif" font-size="14" lengthAdjust="spacing" textLength="145" x="411" y="346.0957">Processador de Dados</text><rect fill="#FFFFFF" height="211.7461" style="stroke:#181818;stroke-width:1.0;" width="10" x="57.5" y="88.2422"/><rect fill="#FFFFFF" height="31.291" style="stroke:#181818;stroke-width:1.0;" width="10" x="478.5" y="111.5332"/><polygon fill="#181818" points="466.5,107.5332,476.5,111.5332,466.5,115.5332,470.5,111.5332" style="stroke:#181818;stroke-width:1.0;"/><line style="stroke:#181818;stroke-width:1.0;" x1="67.5" x2="472.5" y1="111.5332" y2="111.5332"/><text fill="#000000" font-family="sans-serif" font-size="13" font-weight="bold" lengthAdjust="spacing" textLength="7" x="74.5" y="106.2705">1</text><text fill="#000000" font-family="sans-serif" font-size="13" lengthAdjust="spacing" textLength="361" x="85.5" y="106.2705">Pede o caminho para o ficheiro com os dados da &#250;ltima leitura</text><polygon fill="#181818" points="78.5,138.8242,68.5,142.8242,78.5,146.8242,74.5,142.8242" style="stroke:#181818;stroke-width:1.0;"/><line style="stroke:#181818;stroke-width:1.0;" x1="72.5" x2="482.5" y1="142.8242" y2="142.8242"/><text fill="#000000" font-family="sans-serif" font-size="13" font-weight="bold" lengthAdjust="spacing" textLength="7" x="84.5" y="137.5615">2</text><text fill="#000000" font-family="sans-serif" font-size="13" lengthAdjust="spacing" textLength="376" x="95.5" y="137.5615">Retorna o caminho para o ficheiro com os dados da &#250;ltima leitura</text><polygon fill="#181818" points="471.5,170.1152,481.5,174.1152,471.5,178.1152,475.5,174.1152" style="stroke:#181818;stroke-width:1.0;"/><line style="stroke:#181818;stroke-width:1.0;" x1="67.5" x2="477.5" y1="174.1152" y2="174.1152"/><text fill="#000000" font-family="sans-serif" font-size="13" font-weight="bold" lengthAdjust="spacing" textLength="7" x="74.5" y="168.8525">3</text><text fill="#000000" font-family="sans-serif" font-size="13" lengthAdjust="spacing" textLength="332" x="85.5" y="168.8525">Executa leitura do ficheiro com os dados da &#250;ltima leitura</text><line style="stroke:#181818;stroke-width:1.0;" x1="67.5" x2="109.5" y1="205.4063" y2="205.4063"/><line style="stroke:#181818;stroke-width:1.0;" x1="109.5" x2="109.5" y1="205.4063" y2="218.4063"/><line style="stroke:#181818;stroke-width:1.0;" x1="68.5" x2="109.5" y1="218.4063" y2="218.4063"/><polygon fill="#181818" points="78.5,214.4063,68.5,218.4063,78.5,222.4063,74.5,218.4063" style="stroke:#181818;stroke-width:1.0;"/><text fill="#000000" font-family="sans-serif" font-size="13" font-weight="bold" lengthAdjust="spacing" textLength="7" x="74.5" y="200.1436">4</text><text fill="#000000" font-family="sans-serif" font-size="13" lengthAdjust="spacing" textLength="293" x="85.5" y="200.1436">Compila dados num array de uma estrutura pr&#243;pria</text><line style="stroke:#181818;stroke-width:1.0;" x1="67.5" x2="109.5" y1="249.6973" y2="249.6973"/><line style="stroke:#181818;stroke-width:1.0;" x1="109.5" x2="109.5" y1="249.6973" y2="262.6973"/><line style="stroke:#181818;stroke-width:1.0;" x1="68.5" x2="109.5" y1="262.6973" y2="262.6973"/><polygon fill="#181818" points="78.5,258.6973,68.5,262.6973,78.5,266.6973,74.5,262.6973" style="stroke:#181818;stroke-width:1.0;"/><text fill="#000000" font-family="sans-serif" font-size="13" font-weight="bold" lengthAdjust="spacing" textLength="7" x="74.5" y="244.4346">5</text><text fill="#000000" font-family="sans-serif" font-size="13" lengthAdjust="spacing" textLength="226" x="85.5" y="244.4346">Cria ficheiro de output, caso n&#227;o exista</text><line style="stroke:#181818;stroke-width:1.0;" x1="67.5" x2="109.5" y1="298.9883" y2="298.9883"/><line style="stroke:#181818;stroke-width:1.0;" x1="109.5" x2="109.5" y1="298.9883" y2="311.9883"/><line style="stroke:#181818;stroke-width:1.0;" x1="62.5" x2="109.5" y1="311.9883" y2="311.9883"/><polygon fill="#181818" points="72.5,307.9883,62.5,311.9883,72.5,315.9883,68.5,311.9883" style="stroke:#181818;stroke-width:1.0;"/><text fill="#000000" font-family="sans-serif" font-size="13" font-weight="bold" lengthAdjust="spacing" textLength="7" x="74.5" y="293.7256">6</text><text fill="#000000" font-family="sans-serif" font-size="13" lengthAdjust="spacing" textLength="167" x="85.5" y="293.7256">Escreve no ficheiro de output</text><!--SRC=[fL9BJWCn3DtFAInM8C45MB1XkX-H4vYCExKwIGR7AUrvE08xjhqOJelwKzb05fOIluy_oKkE4me622aclv0K25GADVcGcT0lSI2dcv50o2l6OJm5v0NswPtZ07CSCpMDiXhKRR9I04TlXQ8dQ1c72hzrhhrh6YoQOWcl94rZEigU9umADmwvH-YDOBBv1Z23QyyXdIHFELjUpe5TQy9UUOLAbGLsTi6ryF1aQNY4ZeoIm6FWk4XGUx3hdFs2MEmz1KWP-gff4RPVet9068cr21ub3pxTtgUURcVZgiqBQPA8_tJgwTBciftPcdpH0mlwl_JYZdK_fp3nY3yasn2W26xgd8jHATlts1bDilsSX7zHiSInZZhmebFHUnj6JX2t7mbepLclisVP2wq8OhgYiMUS3CRs_0q0]--></g></svg>